<svg version="1.1" id="Layer_1" xmlns="http://www.w3.org/2000/svg" xmlns:xlink="http://www.w3.org/1999/xlink" x="0px" y="0px"
	 width="100%" viewBox="0 0 96 96" enable-background="new 0 0 96 96" xml:space="preserve">
<path fill="#FEFEFE" opacity="1.000000" stroke="none" 
	d="
M59.000000,97.000000 
	C39.333336,97.000000 20.166674,97.000000 1.000008,97.000000 
	C1.000005,65.000008 1.000005,33.000019 1.000003,1.000021 
	C32.999985,1.000014 64.999969,1.000014 96.999969,1.000007 
	C96.999977,32.999981 96.999977,64.999962 96.999985,96.999969 
	C84.500000,97.000000 72.000000,97.000000 59.000000,97.000000 
M40.014236,56.075325 
	C40.014236,53.465374 40.014236,50.855427 40.014236,48.177025 
	C30.450109,48.177025 21.395395,48.177025 13.084641,48.177025 
	C13.791571,50.726860 14.995632,53.179455 15.065513,55.663948 
	C15.309078,64.323631 15.320672,72.999039 15.068069,81.658188 
	C14.986305,84.460983 13.820262,87.232155 13.238503,89.650681 
	C21.511665,89.650681 30.593700,89.650681 39.796997,89.650681 
	C39.796997,85.893661 39.796997,82.503654 39.796997,79.113647 
	C36.752216,81.324326 35.172096,85.273010 32.399887,86.477104 
	C29.225990,87.855667 24.993307,86.796555 21.202225,86.796555 
	C21.202225,81.064774 21.202225,75.653351 21.202225,68.699242 
	C26.102959,70.476578 30.258577,71.983688 34.174622,73.403908 
	C34.174622,69.700089 34.174622,65.950470 34.174622,62.200851 
	C30.475285,65.989609 26.731155,68.764816 21.192410,66.483727 
	C21.192410,61.454388 21.192410,56.382320 21.192410,51.371658 
	C21.742161,51.213543 22.050554,51.034534 22.346575,51.053078 
	C27.943926,51.403709 34.886593,48.625095 37.033985,57.283180 
	C37.066044,57.412437 38.966919,57.078190 40.014236,56.075325 
M88.682259,32.169952 
	C87.045982,27.033895 84.433289,26.233761 80.691551,29.937065 
	C70.163513,40.356960 59.734650,50.876995 49.224461,61.315033 
	C46.927460,63.596260 44.850250,66.034142 47.887085,68.889633 
	C50.785397,71.614891 53.023701,69.169823 55.064781,67.130707 
	C65.426888,56.778625 75.792397,46.429855 86.118866,36.042309 
	C87.032501,35.123272 87.673645,33.933346 88.682259,32.169952 
M58.817844,31.317738 
	C55.989021,34.145203 53.202900,37.017193 50.316837,39.784973 
	C48.286602,41.731991 46.996906,43.944199 49.274719,46.239605 
	C51.687389,48.670910 54.023048,47.440025 56.157013,45.287998 
	C65.778336,35.585251 75.559410,26.037188 84.994843,16.158243 
	C86.271095,14.822003 86.981842,11.204115 86.098373,9.903459 
	C84.165108,7.057272 81.582619,8.491191 79.452255,10.651013 
	C72.781799,17.413704 66.035049,24.101137 58.817844,31.317738 
M38.820644,30.320887 
	C36.704807,32.436581 34.157143,34.284641 32.622616,36.760612 
	C31.572687,38.454685 30.950405,41.698345 31.879978,43.054371 
	C33.564148,45.511158 36.191917,44.457485 38.204910,42.423187 
	C42.997543,37.579834 47.822960,32.768566 52.668858,27.978455 
	C54.787735,25.883968 56.065189,23.579092 53.546284,21.119207 
	C51.211918,18.839539 49.015526,20.093027 47.075222,22.060076 
	C44.507195,24.663502 41.907112,27.235313 38.820644,30.320887 
z"/>
<path fill="#090909" opacity="1.000000" stroke="none" 
	d="
M40.004929,56.517792 
	C38.966919,57.078190 37.066044,57.412437 37.033985,57.283180 
	C34.886593,48.625095 27.943926,51.403709 22.346575,51.053078 
	C22.050554,51.034534 21.742161,51.213543 21.192410,51.371658 
	C21.192410,56.382320 21.192410,61.454388 21.192410,66.483727 
	C26.731155,68.764816 30.475285,65.989609 34.174622,62.200851 
	C34.174622,65.950470 34.174622,69.700089 34.174622,73.403908 
	C30.258577,71.983688 26.102959,70.476578 21.202225,68.699242 
	C21.202225,75.653351 21.202225,81.064774 21.202225,86.796555 
	C24.993307,86.796555 29.225990,87.855667 32.399887,86.477104 
	C35.172096,85.273010 36.752216,81.324326 39.796997,79.113647 
	C39.796997,82.503654 39.796997,85.893661 39.796997,89.650681 
	C30.593700,89.650681 21.511665,89.650681 13.238503,89.650681 
	C13.820262,87.232155 14.986305,84.460983 15.068069,81.658188 
	C15.320672,72.999039 15.309078,64.323631 15.065513,55.663948 
	C14.995632,53.179455 13.791571,50.726860 13.084641,48.177025 
	C21.395395,48.177025 30.450109,48.177025 40.014236,48.177025 
	C40.014236,50.855427 40.014236,53.465374 40.004929,56.517792 
z"/>
<path fill="#282826" opacity="1.000000" stroke="none" 
	d="
M88.561798,32.519592 
	C87.673645,33.933346 87.032501,35.123272 86.118866,36.042309 
	C75.792397,46.429855 65.426888,56.778625 55.064781,67.130707 
	C53.023701,69.169823 50.785397,71.614891 47.887085,68.889633 
	C44.850250,66.034142 46.927460,63.596260 49.224461,61.315033 
	C59.734650,50.876995 70.163513,40.356960 80.691551,29.937065 
	C84.433289,26.233761 87.045982,27.033895 88.561798,32.519592 
z"/>
<path fill="#222220" opacity="1.000000" stroke="none" 
	d="
M59.067856,31.067734 
	C66.035049,24.101137 72.781799,17.413704 79.452255,10.651013 
	C81.582619,8.491191 84.165108,7.057272 86.098373,9.903459 
	C86.981842,11.204115 86.271095,14.822003 84.994843,16.158243 
	C75.559410,26.037188 65.778336,35.585251 56.157013,45.287998 
	C54.023048,47.440025 51.687389,48.670910 49.274719,46.239605 
	C46.996906,43.944199 48.286602,41.731991 50.316837,39.784973 
	C53.202900,37.017193 55.989021,34.145203 59.067856,31.067734 
z"/>
<path fill="#21211F" opacity="1.000000" stroke="none" 
	d="
M39.070724,30.070801 
	C41.907112,27.235313 44.507195,24.663502 47.075222,22.060076 
	C49.015526,20.093027 51.211918,18.839539 53.546284,21.119207 
	C56.065189,23.579092 54.787735,25.883968 52.668858,27.978455 
	C47.822960,32.768566 42.997543,37.579834 38.204910,42.423187 
	C36.191917,44.457485 33.564148,45.511158 31.879978,43.054371 
	C30.950405,41.698345 31.572687,38.454685 32.622616,36.760612 
	C34.157143,34.284641 36.704807,32.436581 39.070724,30.070801 
z"/>
</svg>